<svg width="713" height="202" viewBox="0 0 713 202" fill="none" xmlns="http://www.w3.org/2000/svg">
<path d="M36.7136 0.700281C22.115 6.8014 6.06219 24.0197 0.995436 45.6768C-5.43292 73.0931 21.2929 84.6711 23.4766 80.8936C26.046 76.4133 18.6722 74.9095 17.1665 60.6938C15.2291 42.3108 23.7644 21.7723 34.535 12.7601C36.5441 11.1127 36.4466 13.4375 36.4466 17.7231C36.4466 25.452 36.0149 94.6012 36.0149 109.038C36.0149 128.581 35.2133 134.734 33.7334 140.81C32.2789 146.989 29.9257 151.156 31.6985 152.778C33.7076 154.569 42.2429 150.305 47.1913 143.407C53.1109 135.144 55.1971 125.214 55.5825 114.437C56.0191 101.458 55.9937 80.8217 56.0191 69.0744C56.0191 58.2712 56.1887 26.6887 55.8495 7.67437C55.752 3.0251 42.8028 -1.84548 36.7136 0.700281ZM709.779 103.295C707.692 103.295 706.701 105.476 705.899 109.136C703.135 121.899 700.226 124.778 696.465 124.778C692.272 124.778 688.51 118.461 687.519 105.815C686.768 95.8845 686.887 77.5734 687.858 59.3597C688.053 55.6289 687.03 51.9284 676.99 48.2695C672.652 46.7195 666.368 44.3947 663.244 51.9492C654.39 73.2421 650.947 90.1933 650.12 97.0496C650.101 97.4087 649.663 97.4603 649.586 96.6389C649.082 91.1375 647.916 81.135 647.772 60.1092C647.72 56.0446 646.872 52.5288 642.314 49.6705C639.38 47.833 630.455 44.5382 627.228 48.4388C624.463 51.6359 621.241 60.2115 617.87 70.3834C615.152 78.6666 613.261 84.2862 613.261 84.2862C613.261 84.2862 613.28 61.9513 613.333 53.4734C613.333 50.276 611.149 49.2137 610.497 49.0185C607.511 48.1463 601.617 46.7195 599.146 46.7195C596.068 46.7195 595.338 48.4389 595.338 50.933C595.338 51.246 594.829 80.309 594.829 100.632V103.49C593.154 112.841 587.63 125.533 581.639 125.533C575.647 125.533 572.81 120.226 572.81 96.0077C572.81 81.8844 573.247 75.7363 573.442 65.5132C573.561 59.6265 573.802 55.1 573.782 54.0585C573.73 50.933 568.273 49.3318 565.75 48.7518C563.206 48.1463 560.997 47.9512 559.255 48.0232C556.83 48.1717 555.108 49.7679 555.108 52.0004V55.3875C551.979 50.4504 546.907 47.007 543.516 46.0163C534.446 43.3273 524.96 45.7237 517.807 55.7005C512.134 63.6503 508.712 72.6313 507.381 85.5437C506.384 94.9915 506.703 104.558 508.471 112.646C506.338 121.776 502.407 125.533 498.116 125.533C491.857 125.533 487.351 115.356 487.86 97.7474C488.225 86.1749 490.527 78.0611 493.07 66.288C494.165 61.2739 493.266 58.6619 491.061 56.1162C489.047 53.8375 484.73 52.652 478.549 54.0789C474.155 55.1208 467.829 56.2343 462.079 57.0861C462.079 57.0861 462.418 55.7005 462.711 53.2579C464.191 40.4428 450.245 41.4848 445.806 45.5802C443.139 48.0232 441.32 50.9072 440.641 56.0908C439.552 64.3277 446.268 68.2022 446.268 68.2022C444.064 78.2767 438.678 91.4504 433.077 100.971C430.092 106.082 427.81 109.839 424.856 113.857C424.829 112.379 424.829 110.875 424.829 109.402C424.778 88.2072 425.045 71.5227 425.168 65.5132C425.291 59.6265 425.533 55.2182 425.533 54.1762C425.482 51.8976 424.151 51.0046 421.334 49.9373C418.863 48.9723 415.929 48.2695 412.897 48.0232C409.089 47.7356 406.762 49.7679 406.834 52.1647V55.3875C403.683 50.4504 398.612 47.007 395.266 46.0163C386.171 43.3273 376.691 45.7237 369.538 55.7005C363.886 63.6503 360.15 74.7663 359.081 85.4205C358.115 95.4022 358.284 103.829 359.641 110.952C358.187 118.07 354.04 125.533 349.338 125.533C343.346 125.533 339.924 120.226 339.924 96.0077C339.924 81.8844 340.361 75.7363 340.582 65.5132C340.7 59.6265 340.921 55.1 340.895 54.0585C340.869 50.933 335.418 49.3318 332.869 48.7518C330.228 48.1255 327.921 47.9308 326.173 48.0232C323.846 48.2179 322.222 50.276 322.222 51.8514V55.3875C319.072 50.4504 314 47.007 310.629 46.0163C301.56 43.3273 292.151 45.7753 284.947 55.7005C280.245 62.1722 276.437 69.3623 274.474 85.3023C273.94 89.9058 273.673 94.2117 273.698 98.2351C271.828 109.664 263.56 122.843 256.818 122.843C252.841 122.843 249.059 115.186 249.059 98.8406C249.059 77.0912 250.415 46.0882 250.657 43.086C250.657 43.086 259.192 42.937 260.867 42.9166C265.112 42.8908 268.991 42.9886 274.644 42.6961C277.506 42.5525 280.245 32.3548 277.285 31.0719C275.975 30.5123 266.566 30.0042 262.83 29.9326C259.68 29.8607 250.97 29.209 250.97 29.209C250.97 29.209 251.752 8.64471 251.921 6.48925C252.065 4.64671 249.737 3.72833 248.381 3.16867C245.102 1.76762 242.168 1.11097 238.725 0.407754C233.9 -0.582606 231.742 0.387354 231.331 4.42616C230.699 10.5588 230.36 28.5316 230.36 28.5316C226.819 28.5316 214.816 27.8234 211.295 27.8234C208.027 27.8234 204.482 41.8747 209.019 42.044C214.235 42.2392 223.279 42.4343 229.291 42.5983C229.291 42.5983 229.023 74.1143 229.023 83.8243V86.8266C225.704 104.044 214.086 113.349 214.086 113.349C216.583 101.941 211.491 93.3903 202.277 86.1749C198.881 83.4856 192.19 78.4202 184.693 72.9238C184.693 72.9238 189.035 68.6386 192.889 60.063C195.608 53.9815 195.731 46.9862 189.035 45.457C177.977 42.9166 168.882 51.0304 166.143 59.6985C164.057 66.3854 165.151 71.3738 169.293 76.5315L170.238 77.6966C167.767 82.4898 164.324 88.9562 161.436 93.9704C153.363 107.899 147.274 118.897 142.69 118.897C139.006 118.897 139.052 107.73 139.052 97.2652C139.052 88.2534 139.731 74.6686 140.265 60.6222C140.435 55.993 138.107 53.3294 134.207 50.933C131.827 49.4804 126.781 46.6221 123.847 46.6221C119.485 46.6221 106.823 47.2018 94.8709 81.715C93.3652 86.0771 90.4054 93.9962 90.4054 93.9962L90.6729 52.4827C90.6729 51.5127 90.1641 50.5943 88.9771 49.9373C86.9627 48.8492 81.5568 46.6221 76.8037 46.6221C74.4964 46.6221 73.3556 47.6894 73.3556 49.7937L72.9702 114.704C72.9702 119.646 73.0885 125.409 73.5768 127.929C74.0597 130.449 74.8614 132.507 75.8325 133.739C76.8037 134.929 77.9395 135.848 79.784 136.259C81.5055 136.623 90.9862 137.808 91.4745 134.201C92.0807 129.864 92.1011 125.194 97.0754 107.683C104.835 80.4575 114.927 67.186 119.68 62.4594C120.528 61.6384 121.473 61.5872 121.422 62.9471C121.206 68.9258 120.502 83.8243 120.019 96.4904C118.734 130.424 124.89 136.695 133.744 136.695C140.486 136.695 149.993 129.987 160.203 113.036C166.58 102.449 172.741 92.1074 177.201 84.6249C180.259 87.4782 183.748 90.5574 187.216 93.8522C195.294 101.479 197.935 108.746 196.168 115.628C194.831 120.903 189.765 126.328 180.767 121.052C178.147 119.523 177.032 118.338 174.39 116.592C172.982 115.648 170.798 115.381 169.514 116.351C166.117 118.897 164.2 122.115 163.085 126.113C162.042 130.013 165.948 132.045 169.997 133.836C173.465 135.412 180.937 136.792 185.711 136.962C204.312 137.593 219.204 128.001 229.558 103.295C231.428 124.635 239.306 136.721 253.01 136.721C262.198 136.721 271.391 124.876 275.42 113.226C276.555 117.973 278.277 122.089 280.487 125.605C291.062 142.314 311.575 138.732 321.857 124.537C325.058 120.128 325.547 118.553 325.547 118.553C327.047 131.953 337.864 136.669 344.05 136.669C351.008 136.669 358.14 133.38 363.156 122.089C363.762 123.326 364.394 124.491 365.124 125.605C375.673 142.314 396.186 138.732 406.495 124.537C406.957 123.834 407.394 123.254 407.753 122.695L408.072 131.511C408.072 131.511 402.178 136.89 398.566 140.205C382.682 154.765 370.602 165.809 369.708 178.644C368.592 195.041 381.881 201.123 391.968 201.918C402.641 202.77 411.808 196.883 417.429 188.6C422.378 181.333 425.63 165.712 425.389 150.259C425.292 144.059 425.143 136.212 424.998 127.76C430.6 121.319 436.905 113.128 442.68 103.542C449.006 93.1236 455.748 79.0977 459.19 68.1768C459.19 68.1768 465.085 68.228 471.343 67.838C473.357 67.7149 473.938 68.1306 473.548 69.5828C473.111 71.3484 465.645 100.149 472.458 119.333C477.14 132.456 487.638 136.695 493.897 136.695C501.193 136.695 508.182 131.173 511.912 122.987C512.375 123.885 512.837 124.778 513.372 125.605C523.921 142.314 544.362 138.707 554.742 124.537C557.096 121.319 558.406 118.553 558.406 118.553C560.636 132.435 571.453 136.721 577.635 136.721C584.109 136.721 590.219 134.082 595.193 122.356C595.389 127.519 595.702 131.732 596.236 133.061C596.549 133.888 598.394 134.904 599.705 135.412C605.619 137.593 611.636 136.551 613.841 136.089C615.393 135.776 616.606 134.565 616.754 131.368C617.186 122.987 616.919 108.915 619.468 98.4303C623.758 80.894 627.736 74.0889 629.626 70.7221C630.675 68.8284 631.883 68.5155 631.908 70.5016C631.98 74.5454 632.201 86.4159 633.871 102.402C635.063 114.124 636.687 121.073 637.946 123.28C641.487 129.551 645.901 129.843 649.467 129.843C651.748 129.843 656.501 129.212 656.085 125.214C655.869 123.28 656.234 111.24 660.427 93.95C663.192 82.6388 667.775 72.4415 669.425 68.7102C670.057 67.33 670.324 68.3973 670.324 68.6129C669.959 76.3879 669.183 101.843 672.333 115.746C676.655 134.616 689.09 136.721 693.432 136.721C702.672 136.721 710.266 129.695 712.81 111.194C713.442 106.734 712.518 103.295 709.779 103.295ZM322.026 91.8657C321.518 101.648 319.601 109.838 316.548 115.771C310.968 126.548 299.987 129.94 295.157 114.416C291.642 103.203 292.829 87.8935 294.309 79.6311C296.441 67.3758 301.852 58.7077 310.29 59.5029C318.923 60.3551 323.141 71.4712 322.026 91.8657ZM406.639 92.0097C406.156 101.237 403.756 110.536 401.136 115.771C395.73 126.62 384.425 130.012 379.744 114.416C376.548 103.731 377.298 89.9516 378.896 81.2785C380.961 69.9931 385.93 59.5029 394.882 59.5029C403.587 59.5029 407.877 69.0486 406.639 92.0097ZM408.848 155.077C408.725 171.962 406.084 186.737 400.406 191.048C392.307 197.15 381.419 192.547 383.675 180.245C385.663 169.345 395.098 158.229 408.874 144.639C408.874 144.639 408.922 147.738 408.848 155.077ZM554.938 92.1071C554.45 102.258 552.194 110.177 549.409 115.771C543.998 126.62 532.796 129.987 528.017 114.416C525.422 105.912 525.299 91.7171 527.169 79.8775C529.06 67.8119 534.374 58.7077 543.15 59.5029C551.829 60.3293 555.884 71.4712 554.938 92.1071Z" fill="#231E1F"/>
</svg>
