<svg version="1.1" id="Layer_1" xmlns:x="ns_extend;" xmlns:i="ns_ai;" xmlns:graph="ns_graphs;" xmlns="http://www.w3.org/2000/svg" xmlns:xlink="http://www.w3.org/1999/xlink" x="0px" y="0px" viewBox="0 0 1729.2 411.8" style="enable-background:new 0 0 1729.2 411.8;" xml:space="preserve">
 <metadata>
  <sfw xmlns="ns_sfw;">
   <slices>
   </slices>
   <sliceSourceBounds bottomLeftOrigin="true" height="411.8" width="1729.2" x="335.4" y="295.8">
   </sliceSourceBounds>
  </sfw>
 </metadata>
 <g id="LOGOS">
  <path d="M305.5,82.5c-28-18.2-44.8-49.2-44.9-82.5h-70.8l-0.1,283.8c-1.3,32.8-28.9,58.4-61.7,57.2S69.6,312,70.8,279.2
		c1.2-32,27.5-57.2,59.5-57.2c6,0,11.9,0.9,17.6,2.8v-72.3c-5.8-0.8-11.7-1.2-17.6-1.3C58.5,151.2,0,209.7,0,281.5
		c0,72,58.3,130.3,130.3,130.3s130.3-58.3,130.3-130.3V137.6c28.7,20.6,63.2,31.7,98.5,31.7V98.5C340.1,98.5,321.5,93,305.5,82.5z">
  </path>
  <path d="M426.8,98.9H650l-20.5,63.8h-58v236.2h-72.1V162.7l-72.6,0.1L426.8,98.9z">
  </path>
  <path d="M1015.8,98.9h228.4l-20.5,63.8h-63v236.2h-72.3V162.7l-72.6,0.1L1015.8,98.9z">
  </path>
  <polygon points="663.7,194.3 735.2,194.3 735.2,398.9 664.1,398.9 	">
  </polygon>
  <path d="M763.6,98h71.5v139.7l70.9-69.5h85.3l-89.6,87l100.4,143.7h-78.8l-67-99.7l-21.2,20.6v79h-71.5V98z">
  </path>
  <path d="M1490.7,98h71.5v139.7l70.9-69.5h85.4l-89.6,87l100.4,143.7h-78.8l-67-99.7l-21.2,20.6v79h-71.5V98z">
  </path>
  <circle cx="699.4" cy="134.9" r="36">
  </circle>
  <path d="M1339.1,153.9c-67.6,0-122.5,54.8-122.5,122.4c0,67.6,54.8,122.5,122.4,122.5c67.6,0,122.5-54.8,122.5-122.4c0,0,0,0,0,0
		C1461.6,208.8,1406.8,154,1339.1,153.9z M1339.1,335.9c-32.9,0-59.5-26.6-59.5-59.5s26.6-59.5,59.5-59.5
		c32.9,0,59.5,26.6,59.5,59.5c0,0,0,0,0,0C1398.7,309.3,1372,335.9,1339.1,335.9z">
  </path>
 </g>
</svg>